<?xml version="1.0" encoding="UTF-8"?>
<svg version="1.1" xmlns="http://www.w3.org/2000/svg" width="1350" height="384">
<path d="M0 0 C0.76127197 -0.0065712 1.52254395 -0.0131424 2.30688477 -0.01991272 C4.84464617 -0.03972815 7.38234757 -0.05133912 9.92016602 -0.0612793 C10.79041979 -0.06535482 11.66067356 -0.06943035 12.55729866 -0.07362938 C17.18158864 -0.09454533 21.80584865 -0.10881149 26.43017578 -0.11816406 C31.16258644 -0.12911732 35.89451225 -0.1633695 40.62675381 -0.20333576 C44.2981693 -0.22978401 47.96947554 -0.23788154 51.64097786 -0.24144554 C53.38172669 -0.24625538 55.12247257 -0.25770463 56.86312675 -0.27648354 C71.76473285 -0.42698559 87.03446725 0.93653255 100.54907227 7.80200195 C101.23864014 8.13973633 101.92820801 8.4774707 102.63867188 8.82543945 C109.69518758 12.42502053 115.76951699 17.0027722 121.73657227 22.17700195 C122.85612305 23.12833008 122.85612305 23.12833008 123.99829102 24.09887695 C141.85217248 40.51462651 150.58964335 68.17007251 151.94116211 91.74584961 C152.03842684 95.32983284 152.06569399 98.90426857 152.04907227 102.48950195 C152.04170044 104.38962036 152.04170044 104.38962036 152.03417969 106.328125 C151.91439132 115.93392379 151.12832888 124.88001253 148.73657227 134.17700195 C148.5702832 134.8337793 148.40399414 135.49055664 148.23266602 136.16723633 C144.25625895 151.43958494 137.46338973 166.42646332 126.73657227 178.17700195 C126.07657227 178.17700195 125.41657227 178.17700195 124.73657227 178.17700195 C124.40657227 179.16700195 124.07657227 180.15700195 123.73657227 181.17700195 C123.07657227 181.17700195 122.41657227 181.17700195 121.73657227 181.17700195 C121.73657227 181.83700195 121.73657227 182.49700195 121.73657227 183.17700195 C102.51679044 200.46072517 79.24579575 205.51919676 54.19750977 205.4074707 C52.42200758 205.40627654 50.64650476 205.40582624 48.8710022 205.40608215 C45.17462129 205.40452758 41.47833864 205.39631054 37.78198242 205.3828125 C33.03492326 205.36569915 28.28797043 205.36200224 23.54088402 205.36275768 C19.88647439 205.36248665 16.23208818 205.35701825 12.57768631 205.34975624 C10.8257121 205.34656857 9.07373523 205.34460194 7.32175827 205.34386253 C4.88755443 205.34170705 2.45346629 205.33298386 0.01928711 205.32226562 C-1.07148636 205.3229454 -1.07148636 205.3229454 -2.18429565 205.32363892 C-7.14894049 205.2914892 -7.14894049 205.2914892 -8.26342773 204.17700195 C-8.36344549 201.56166878 -8.39783285 198.97267673 -8.39041138 196.35681152 C-8.39197137 195.52770154 -8.39353136 194.69859155 -8.39513862 193.84435701 C-8.39915215 191.0444137 -8.39595762 188.24452387 -8.39282227 185.44458008 C-8.39417615 183.4460802 -8.39595601 181.44758057 -8.39813232 179.44908142 C-8.40270818 174.00502605 -8.40091647 168.56098954 -8.39775324 163.11693382 C-8.39523042 157.43322064 -8.39756696 151.74950914 -8.3991394 146.0657959 C-8.40096133 136.51904 -8.39855419 126.97229183 -8.39379883 117.42553711 C-8.38835617 106.37095728 -8.39011881 95.31639589 -8.39562523 84.2618165 C-8.40015571 74.78924606 -8.40080723 65.31668119 -8.39818656 55.84411001 C-8.39662343 50.17838329 -8.39643102 44.51266526 -8.39972305 38.84693909 C-8.40260082 33.52172032 -8.40062782 28.19652545 -8.3948288 22.87130928 C-8.39350069 20.91085919 -8.39389617 18.95040712 -8.39609146 16.98995781 C-8.39880099 14.32567504 -8.39542428 11.66147012 -8.39041138 8.99719238 C-8.3926421 8.21092484 -8.39487282 7.4246573 -8.39717114 6.61456347 C-8.37032807 -0.67848016 -6.6413638 0.02461352 0 0 Z M42.73657227 51.17700195 C42.73657227 85.16700195 42.73657227 119.15700195 42.73657227 154.17700195 C66.21221754 155.02842495 66.21221754 155.02842495 85.79907227 144.80200195 C97.96983261 131.86457954 100.4143615 114.56433246 99.95532227 97.5246582 C99.74367723 92.54782525 99.1842173 87.95423055 97.73657227 83.17700195 C97.42977539 82.06969727 97.12297852 80.96239258 96.80688477 79.8215332 C93.43810557 68.98335737 87.75034465 61.95177639 78.73657227 55.17700195 C66.44700527 49.25167501 57.92609934 51.17700195 42.73657227 51.17700195 Z " fill="#5F4FB5" transform="translate(422.263427734375,82.822998046875)"/>
<path d="M0 0 C0.77118164 0.00142502 1.54236328 0.00285004 2.33691406 0.00431824 C3.2112207 0.00124161 4.08552734 -0.00183502 4.98632812 -0.00500488 C5.93217773 0.00218063 6.87802734 0.00936615 7.85253906 0.01676941 C8.8215918 0.01722763 9.79064453 0.01768585 10.7890625 0.01815796 C12.84018171 0.0211822 14.89129858 0.02907362 16.94238281 0.04142761 C20.08960061 0.05966319 23.236524 0.06193747 26.38378906 0.06169128 C28.37337495 0.06660718 30.36295884 0.07243581 32.35253906 0.07926941 C33.77131348 0.08093864 33.77131348 0.08093864 35.21875 0.0826416 C36.53020996 0.09221138 36.53020996 0.09221138 37.86816406 0.10197449 C38.6393457 0.10578629 39.41052734 0.10959808 40.20507812 0.11352539 C42.10253906 0.24723816 42.10253906 0.24723816 44.10253906 1.24723816 C45.11096438 4.00609815 46.00536226 6.73423563 46.84863281 9.54411316 C47.11010605 10.39414917 47.37157928 11.24418518 47.64097595 12.11997986 C48.47042054 14.82644329 49.28785812 17.53629719 50.10253906 20.24723816 C50.48602509 21.51676331 50.48602509 21.51676331 50.8772583 22.81193542 C52.91402038 29.55855584 54.92400907 36.31308072 56.92797852 43.06950378 C59.80241839 52.75221511 62.77448246 62.37745659 66.01049805 71.94548035 C67.51964566 76.5083492 68.82840184 81.11434379 70.10253906 85.74723816 C71.79833249 91.80239773 73.56705554 97.79736324 75.60253906 103.74723816 C77.56569187 109.49335528 79.27914569 115.27502102 80.91503906 121.12223816 C83.16102092 129.13907396 85.60304528 137.0758433 88.16503906 144.99723816 C90.80258561 153.15670537 93.36683537 161.32224608 95.73535156 169.56364441 C96.85322641 173.43935338 98.03355174 177.29425383 99.21972656 181.14958191 C99.59162109 182.37048523 99.96351563 183.59138855 100.34667969 184.84928894 C101.09020115 187.28884835 101.84129087 189.72611624 102.60058594 192.16081238 C102.93896484 193.2785907 103.27734375 194.39636902 103.62597656 195.54801941 C103.9345459 196.5500238 104.24311523 197.5520282 104.56103516 198.58439636 C105.11962542 201.33126021 104.86737618 202.62028302 104.10253906 205.24723816 C97.16081518 205.27253189 90.21910312 205.2900812 83.27734375 205.3021698 C80.9143835 205.30720775 78.55142639 205.31403824 76.18847656 205.32267761 C72.79784372 205.3347667 69.40725198 205.34047175 66.01660156 205.34489441 C64.95510895 205.35005569 63.89361633 205.35521698 62.79995728 205.36053467 C61.81909149 205.3606102 60.83822571 205.36068573 59.82763672 205.36076355 C58.96159821 205.36298416 58.09555969 205.36520477 57.20327759 205.36749268 C55.10253906 205.24723816 55.10253906 205.24723816 53.10253906 204.24723816 C52.21273547 201.61558237 51.43920116 199.02381177 50.71972656 196.34489441 C50.50059601 195.55199509 50.28146545 194.75909576 50.05569458 193.94216919 C49.59313135 192.26273695 49.13440575 190.58224378 48.67919922 188.90080261 C47.98083473 186.32190827 47.27128841 183.7463037 46.55957031 181.17106628 C46.11229749 179.54168954 45.66566149 177.91213782 45.21972656 176.28239441 C45.00726288 175.50839798 44.79479919 174.73440155 44.57589722 173.93695068 C43.10253906 168.48183427 43.10253906 168.48183427 43.10253906 166.24723816 C27.92253906 166.24723816 12.74253906 166.24723816 -2.89746094 166.24723816 C-3.55746094 169.87723816 -4.21746094 173.50723816 -4.89746094 177.24723816 C-5.94429463 181.61514565 -7.17239684 185.92619616 -8.39746094 190.24723816 C-8.70554687 191.36485535 -9.01363281 192.48247253 -9.33105469 193.63395691 C-9.63140625 194.70258972 -9.93175781 195.77122253 -10.24121094 196.87223816 C-10.64629883 198.3146991 -10.64629883 198.3146991 -11.05957031 199.78630066 C-11.89746094 202.24723816 -11.89746094 202.24723816 -13.89746094 205.24723816 C-15.99147034 205.61473083 -15.99147034 205.61473083 -18.60668945 205.60368347 C-20.07314659 205.60818512 -20.07314659 205.60818512 -21.56922913 205.61277771 C-22.62758469 205.60043091 -23.68594025 205.58808411 -24.77636719 205.57536316 C-25.85877182 205.57348999 -26.94117645 205.57161682 -28.05638123 205.56968689 C-30.34710769 205.56295629 -32.63782247 205.54902198 -34.9284668 205.52848816 C-38.44883817 205.49733658 -41.96876231 205.48751962 -45.48925781 205.48161316 C-47.70996644 205.47244359 -49.93067048 205.46206796 -52.15136719 205.45036316 C-53.21174698 205.44611328 -54.27212677 205.4418634 -55.36463928 205.43748474 C-56.33912521 205.4278772 -57.31361115 205.41826965 -58.31762695 205.40837097 C-59.61096703 205.39812897 -59.61096703 205.39812897 -60.93043518 205.38768005 C-62.89746094 205.24723816 -62.89746094 205.24723816 -63.89746094 204.24723816 C-63.53587061 195.71741498 -60.86123495 187.83481173 -58.33496094 179.74723816 C-57.88167588 178.27540744 -57.42896444 176.80339995 -56.97680664 175.33122253 C-53.9237311 165.42037882 -50.77894818 155.53884396 -47.59106445 145.670578 C-45.52294574 139.25745444 -43.55692598 132.82458434 -41.68920898 126.35050964 C-40.18050724 121.14076402 -38.55235983 115.97471255 -36.89746094 110.80973816 C-34.9881247 104.84163686 -33.21088289 98.86089277 -31.58496094 92.80973816 C-29.49973171 85.08029245 -27.06864652 77.48205024 -24.58496094 69.87223816 C-21.46930939 60.31843527 -18.55013434 50.734943 -15.83496094 41.05973816 C-13.20252479 31.70143094 -10.45801677 22.39033183 -7.52246094 13.12223816 C-7.02153931 11.52085999 -7.02153931 11.52085999 -6.51049805 9.88713074 C-6.19733643 8.91026306 -5.8841748 7.93339539 -5.56152344 6.92692566 C-5.28775879 6.0682489 -5.01399414 5.20957214 -4.73193359 4.32487488 C-3.69104764 1.73331857 -2.87373678 0.37444639 0 0 Z M20.10253906 70.24723816 C18.35532353 75.28413689 16.92579772 80.37708873 15.53613281 85.52067566 C15.29717789 86.40325043 15.05822296 87.2858252 14.81202698 88.19514465 C14.30929809 90.05565972 13.80760385 91.91645463 13.30688477 93.7775116 C12.54404353 96.60738299 11.77357634 99.43510896 11.00292969 102.26286316 C10.51352402 104.07783975 10.02457665 105.89293999 9.53613281 107.70817566 C9.30695663 108.544888 9.07778046 109.38160034 8.84165955 110.2436676 C8.62796219 111.04454803 8.41426483 111.84542847 8.1940918 112.670578 C8.006931 113.36307648 7.8197702 114.05557495 7.62693787 114.76905823 C6.89625381 118.22209158 6.5403191 121.74499786 6.10253906 125.24723816 C19.96253906 125.74223816 19.96253906 125.74223816 34.10253906 126.24723816 C32.80951552 118.48909693 31.43957355 111.03095814 29.50097656 103.45036316 C29.25964996 102.49071655 29.01832336 101.53106995 28.76968384 100.54234314 C28.01011221 97.52615706 27.24395806 94.5116907 26.47753906 91.49723816 C25.95626605 89.43224493 25.43542902 87.3671416 24.91503906 85.30192566 C23.64923129 80.28241226 22.37752399 75.26442799 21.10253906 70.24723816 C20.77253906 70.24723816 20.44253906 70.24723816 20.10253906 70.24723816 Z " fill="#5E4EB5" transform="translate(289.8974609375,82.75276184082031)"/>
<path d="M0 0 C1.31828041 0.00068733 1.31828041 0.00068733 2.66319275 0.00138855 C4.5200231 0.00440849 6.37685098 0.01228709 8.23364258 0.0246582 C11.08228485 0.04292029 13.93060216 0.04516781 16.77929688 0.04492188 C18.58203407 0.04983697 20.38476906 0.05566525 22.1875 0.0625 C23.04271744 0.06361282 23.89793488 0.06472565 24.77906799 0.06587219 C30.79519796 0.11439586 30.79519796 0.11439586 33.02734375 1.23046875 C33.7796407 3.31702822 34.42433091 5.44253318 35.0234375 7.578125 C35.2127182 8.24501846 35.4019989 8.91191193 35.59701538 9.59901428 C36.22739254 11.8282247 36.8461382 14.06049324 37.46484375 16.29296875 C37.90460676 17.85742376 38.34496566 19.42171137 38.78588867 20.98583984 C42.65074817 34.73379739 46.43074289 48.50641347 50.18334961 62.28540039 C52.46606656 70.65383795 54.8192195 78.99441465 57.28689575 87.31025696 C59.02938279 93.19556573 60.64625274 99.10893115 62.21484375 105.04296875 C65.01218508 115.51737113 67.87375813 125.97263165 70.77734375 136.41796875 C71.08810852 137.53600891 71.08810852 137.53600891 71.40515137 138.67663574 C75.572842 153.66022709 79.79561164 168.62827667 84.03036499 183.59303284 C84.85094057 186.49659462 85.66768818 189.40122592 86.48406982 192.30596924 C86.98713992 194.08805025 87.49740953 195.86809463 88.00830078 197.64794922 C88.28399902 198.6226416 88.55969727 199.59733398 88.84375 200.6015625 C89.07650635 201.41423584 89.3092627 202.22690918 89.54907227 203.06420898 C90.02734375 205.23046875 90.02734375 205.23046875 90.02734375 209.23046875 C87.71692744 210.3856769 86.37968712 210.36297533 83.80883789 210.37573242 C82.93775894 210.38211227 82.06667999 210.38849213 81.16920471 210.39506531 C80.22649216 210.39617813 79.2837796 210.39729095 78.3125 210.3984375 C77.34581894 210.4017659 76.37913788 210.4050943 75.38316345 210.40852356 C73.3362577 210.41359192 71.28934366 210.41593191 69.24243164 210.41577148 C66.10614446 210.41795739 62.97020925 210.4361125 59.83398438 210.45507812 C57.84765746 210.45801214 55.86132886 210.45999688 53.875 210.4609375 C52.46396751 210.47171577 52.46396751 210.47171577 51.02442932 210.48271179 C49.71308266 210.47809685 49.71308266 210.47809685 48.37524414 210.47338867 C47.2218026 210.4755262 47.2218026 210.4755262 46.0450592 210.47770691 C44.02734375 210.23046875 44.02734375 210.23046875 41.02734375 208.23046875 C40.13297609 205.5475529 39.41110508 202.97373667 38.765625 200.23046875 C38.57010544 199.43898438 38.37458588 198.6475 38.17314148 197.83203125 C37.55099953 195.3007303 36.94557228 192.76574156 36.33984375 190.23046875 C35.92094907 188.52188325 35.50103933 186.81354627 35.08007812 185.10546875 C32.02734375 172.62288996 32.02734375 172.62288996 32.02734375 170.23046875 C17.83734375 170.23046875 3.64734375 170.23046875 -10.97265625 170.23046875 C-11.63265625 174.52046875 -12.29265625 178.81046875 -12.97265625 183.23046875 C-13.92125779 187.4630876 -14.90278974 191.65544825 -15.97265625 195.85546875 C-16.23304687 196.91636719 -16.4934375 197.97726562 -16.76171875 199.0703125 C-17.14457031 200.59205078 -17.14457031 200.59205078 -17.53515625 202.14453125 C-17.76332031 203.05154785 -17.99148438 203.95856445 -18.2265625 204.89306641 C-18.97265625 207.23046875 -18.97265625 207.23046875 -20.97265625 210.23046875 C-22.94604492 210.59796143 -22.94604492 210.59796143 -25.390625 210.58691406 C-26.30497314 210.58991516 -27.21932129 210.59291626 -28.16137695 210.5960083 C-29.15097412 210.5836615 -30.14057129 210.5713147 -31.16015625 210.55859375 C-32.17360107 210.55672058 -33.1870459 210.55484741 -34.23120117 210.55291748 C-36.37649824 210.5461871 -38.52178284 210.53225321 -40.66699219 210.51171875 C-43.95909976 210.48059691 -47.25072875 210.47075265 -50.54296875 210.46484375 C-52.62370378 210.45567275 -54.70443392 210.44529668 -56.78515625 210.43359375 C-57.77475342 210.42934387 -58.76435059 210.42509399 -59.78393555 210.42071533 C-60.69828369 210.41110779 -61.61263184 210.40150024 -62.5546875 210.39160156 C-63.76475464 210.38135956 -63.76475464 210.38135956 -64.99926758 210.37091064 C-66.97265625 210.23046875 -66.97265625 210.23046875 -68.97265625 209.23046875 C-67.59225137 201.48715822 -65.56466631 194.02162152 -63.34765625 186.48046875 C-60.38849022 176.28120984 -57.55836981 166.0610416 -54.84765625 155.79296875 C-51.48490371 143.0745118 -47.93364736 130.42264064 -44.26367188 117.79003906 C-41.1558927 107.07458676 -38.190663 96.3318518 -35.34765625 85.54296875 C-31.54418388 71.13425551 -27.47328859 56.80639712 -23.34545898 42.48754883 C-22.83565609 40.7182959 -22.32597018 38.94900926 -21.81640625 37.1796875 C-21.56943497 36.32218399 -21.32246368 35.46468048 -21.06800842 34.58119202 C-19.58638098 29.41954241 -18.14738831 24.24860246 -16.75390625 19.0625 C-16.43558838 17.8866333 -16.11727051 16.7107666 -15.78930664 15.49926758 C-15.22158095 13.38838747 -14.6628194 11.27506657 -14.11499023 9.15893555 C-13.87079346 8.2544165 -13.62659668 7.34989746 -13.375 6.41796875 C-13.17382568 5.64839844 -12.97265137 4.87882812 -12.76538086 4.0859375 C-10.50845455 -1.19667412 -4.80311568 -0.04045141 0 0 Z M10.02734375 72.23046875 C9.80594727 73.21217041 9.58455078 74.19387207 9.35644531 75.20532227 C8.51692009 78.92424903 7.67353136 82.64229152 6.82910156 86.36010742 C6.46740598 87.95492886 6.10669355 89.54997366 5.74707031 91.14526367 C3.64583582 100.46288869 1.43232246 109.71654384 -1.14941406 118.91381836 C-1.99069512 122.30314315 -2.47878832 125.77339327 -2.97265625 129.23046875 C5.93734375 129.23046875 14.84734375 129.23046875 24.02734375 129.23046875 C21.8477951 117.99741033 19.53316506 106.8187504 16.96484375 95.66796875 C16.59721924 94.06526123 16.59721924 94.06526123 16.22216797 92.43017578 C14.6466827 85.65084688 12.90918391 78.93114904 11.02734375 72.23046875 C10.69734375 72.23046875 10.36734375 72.23046875 10.02734375 72.23046875 Z " fill="#FEFEFE" transform="translate(1042.97265625,77.76953125)"/>
<path d="M0 0 C1.39671181 -0.00956978 1.39671181 -0.00956978 2.82164001 -0.01933289 C3.82997391 -0.02044571 4.8383078 -0.02155853 5.87719727 -0.02270508 C6.91046646 -0.02603348 7.94373566 -0.02936188 9.00831604 -0.03279114 C11.19645746 -0.03786013 13.38460662 -0.04019947 15.57275391 -0.04003906 C18.92631727 -0.04222506 22.27955154 -0.06037986 25.63305664 -0.0793457 C27.75610239 -0.08227968 29.8791497 -0.08426445 32.00219727 -0.08520508 C33.00850693 -0.09239059 34.01481659 -0.09957611 35.05162048 -0.10697937 C35.98591385 -0.10390274 36.92020721 -0.10082611 37.8828125 -0.09765625 C38.70506821 -0.09908127 39.52732391 -0.10050629 40.37449646 -0.10197449 C42.50610352 0.14526367 42.50610352 0.14526367 45.50610352 2.14526367 C46.46935756 4.49412306 47.26406838 6.74936767 48.00219727 9.16870117 C48.23190216 9.88996185 48.46160706 10.61122253 48.69827271 11.3543396 C49.4561784 13.74009962 50.19959621 16.13013688 50.94360352 18.52026367 C51.73750118 21.02846891 52.53540098 23.53537849 53.33354187 26.04223633 C53.88510654 27.7752596 54.43547334 29.50866454 54.98469543 31.24243164 C57.91853997 40.4915607 60.98612395 49.69481875 64.06860352 58.89526367 C64.57382841 60.40613587 65.07895784 61.91704 65.58398438 63.42797852 C66.49749173 66.16018043 67.41176978 68.89212198 68.3269043 71.6237793 C69.72408933 75.79624244 71.1160492 79.97042042 72.50610352 84.14526367 C74.25930167 81.51546644 75.14469352 79.61604789 76.13500977 76.67504883 C76.44326187 75.76691437 76.75151398 74.85877991 77.06910706 73.92312622 C77.5638578 72.4436702 77.5638578 72.4436702 78.06860352 70.93432617 C78.41644394 69.90588593 78.76428436 68.87744568 79.12266541 67.81784058 C79.86800989 65.61260032 80.61138748 63.40669448 81.35299683 61.20019531 C82.5058908 57.77089641 83.66441274 54.34354954 84.82470703 50.91674805 C87.05532484 44.32742844 89.28097786 37.73643948 91.50610352 31.14526367 C93.47657173 25.30892825 95.45501322 19.47544887 97.44360352 13.64526367 C97.83741211 12.47431152 98.2312207 11.30335937 98.63696289 10.09692383 C99.17353516 8.5275708 99.17353516 8.5275708 99.72094727 6.92651367 C100.02121826 6.0402832 100.32148926 5.15405273 100.63085938 4.2409668 C101.50610352 2.14526367 101.50610352 2.14526367 103.50610352 0.14526367 C105.55541992 -0.10197449 105.55541992 -0.10197449 108.10766602 -0.09765625 C109.06205566 -0.10073288 110.01644531 -0.10380951 110.99975586 -0.10697937 C112.03310059 -0.09979385 113.06644531 -0.09260834 114.13110352 -0.08520508 C115.18894043 -0.08474686 116.24677734 -0.08428864 117.33666992 -0.08381653 C119.57610188 -0.08079178 121.8155317 -0.07289887 124.05493164 -0.06054688 C127.49185603 -0.04231192 130.92851085 -0.040037 134.36547852 -0.0402832 C136.53735586 -0.03536732 138.70923136 -0.0295387 140.88110352 -0.02270508 C141.91444824 -0.02159225 142.94779297 -0.02047943 144.01245117 -0.01933289 C144.96684082 -0.01295303 145.92123047 -0.00657318 146.90454102 0 C147.74678223 0.0038118 148.58902344 0.0076236 149.45678711 0.0115509 C151.50610352 0.14526367 151.50610352 0.14526367 153.50610352 1.14526367 C152.88244374 7.26752378 150.51852179 12.66939626 148.25610352 18.33276367 C147.87325195 19.31051758 147.49040039 20.28827148 147.09594727 21.2956543 C144.79783471 27.11010965 142.31837808 32.80870458 139.70239258 38.48632812 C137.8287676 42.65074642 136.16876974 46.89325407 134.50610352 51.14526367 C132.44385523 56.36424955 130.38714881 61.56141022 128.00610352 66.64526367 C125.4210715 72.19071188 123.19446687 77.86277117 120.94189453 83.54882812 C116.91311258 93.69171552 112.71738985 103.76495234 108.53344727 113.84448242 C108.05270752 115.0462915 107.57196777 116.24810059 107.07666016 117.48632812 C105.50610352 121.14526367 105.50610352 121.14526367 103.60546875 124.56005859 C95.90239535 138.97349872 97.56155595 155.76907244 97.6784668 171.64532471 C97.71845817 178.08506431 97.69495059 184.52494386 97.67547035 190.96472359 C97.67409139 193.20405809 97.68844355 195.44285319 97.70561218 197.68211365 C97.70861645 199.04214424 97.71138159 200.40217539 97.71386719 201.76220703 C97.72555183 203.54394569 97.72555183 203.54394569 97.73747253 205.36167908 C97.50610352 208.14526367 97.50610352 208.14526367 95.50610352 210.14526367 C93.60864258 210.39250183 93.60864258 210.39250183 91.27172852 210.38818359 C89.96026855 210.39279854 89.96026855 210.39279854 88.62231445 210.39750671 C87.67646484 210.3903212 86.73061523 210.38313568 85.75610352 210.37573242 C84.78705078 210.3752742 83.81799805 210.37481598 82.81958008 210.37434387 C80.76846087 210.37131963 78.717344 210.36342821 76.66625977 210.35107422 C73.51904197 210.33283864 70.37211858 210.33056436 67.22485352 210.33081055 C65.23526763 210.32589465 63.24568374 210.32006602 61.25610352 210.31323242 C59.8373291 210.31156319 59.8373291 210.31156319 58.38989258 210.30986023 C57.51558594 210.30348038 56.6412793 210.29710052 55.74047852 210.29052734 C54.96929688 210.28671555 54.19811523 210.28290375 53.40356445 210.27897644 C51.50610352 210.14526367 51.50610352 210.14526367 49.50610352 209.14526367 C49.52022278 208.34744476 49.53434204 207.54962585 49.54888916 206.72763062 C49.67344898 199.05454152 49.73629098 191.38419903 49.73669815 183.71018028 C49.73890005 179.76843419 49.76163021 175.82947873 49.83862305 171.88842773 C50.2468047 149.96593951 47.47856412 133.17488761 37.9697113 113.2762146 C35.77866347 108.58912335 33.92477235 103.784714 32.06860352 98.95776367 C30.15863232 94.14965561 28.20945521 89.39079499 26.00610352 84.70776367 C23.15186312 78.62321742 20.86359388 72.31861347 18.53540039 66.01855469 C16.878212 61.57553219 15.12282714 57.22700534 13.13110352 52.92260742 C9.989467 46.12413482 7.25782468 39.16989722 4.50610352 32.20776367 C3.73882477 30.27181923 2.97073589 28.33620173 2.20166016 26.40097046 C1.69978635 25.13773955 1.19895731 23.87409301 0.69921875 22.61001587 C-1.30035629 17.57120284 -3.42751018 12.59288397 -5.61108398 7.63134766 C-6.49389648 5.14526367 -6.49389648 5.14526367 -6.49389648 1.14526367 C-4.11697216 -0.04319849 -2.65203637 0.01230617 0 0 Z " fill="#FEFEFE" transform="translate(835.493896484375,77.854736328125)"/>
<path d="M0 0 C1.17784058 -0.00281982 2.35568115 -0.00563965 3.56921387 -0.00854492 C5.51737 -0.00550858 5.51737 -0.00550858 7.50488281 -0.00241089 C8.88122606 -0.00376534 10.25756894 -0.00554553 11.63391113 -0.00772095 C15.37761825 -0.01229001 19.12129788 -0.01050788 22.86500549 -0.00734186 C26.77719193 -0.00481555 30.68937597 -0.00715656 34.6015625 -0.00872803 C41.17220483 -0.01054893 47.74283593 -0.00814549 54.31347656 -0.00338745 C61.91723404 0.00205502 69.5209647 0.0002923 77.12472153 -0.00521386 C83.64533595 -0.00974725 90.16594228 -0.01039442 96.68655777 -0.00777519 C100.58445933 -0.00621366 104.48234827 -0.00601526 108.38024902 -0.00931168 C112.04423787 -0.01219366 115.70819204 -0.01020864 119.37217712 -0.00441742 C121.36371818 -0.00245755 123.35526216 -0.00544096 125.34680176 -0.00854492 C127.11356262 -0.00431519 127.11356262 -0.00431519 128.91601562 0 C129.94398254 0.00037703 130.97194946 0.00075405 132.03106689 0.0011425 C134.45800781 0.12698364 134.45800781 0.12698364 136.45800781 1.12698364 C136.45800781 17.95698364 136.45800781 34.78698364 136.45800781 52.12698364 C134.10600722 53.30298394 132.72066381 53.24782905 130.10009766 53.24050903 C128.74892349 53.24039574 128.74892349 53.24039574 127.37045288 53.24028015 C126.39645538 53.23511887 125.42245789 53.22995758 124.41894531 53.22463989 C123.42295319 53.22322495 122.42696106 53.22181 121.40078735 53.22035217 C118.21149729 53.214743 115.02227676 53.20218894 111.83300781 53.18948364 C109.67415466 53.18446982 107.51530041 53.17990671 105.35644531 53.17581177 C100.05694231 53.1647706 94.75748003 53.14802352 89.45800781 53.12698364 C89.46077319 53.92396856 89.46353857 54.72095348 89.46638775 55.54208946 C89.53256824 74.91198108 89.58224966 94.28185022 89.61344433 113.65183067 C89.62892983 123.01891509 89.65005138 132.38592415 89.68432617 141.75296021 C89.71417715 149.9148735 89.73357056 158.07673224 89.7402733 166.2386986 C89.74419288 170.56258623 89.75343911 174.88631776 89.77519798 179.21015549 C89.79549533 183.27634357 89.80185541 187.34231061 89.79733086 191.40854454 C89.7981591 192.90416984 89.80416494 194.39980221 89.81562424 195.89538383 C89.83046107 197.93089382 89.82519445 199.96652127 89.81877136 202.0020752 C89.82153674 203.14325491 89.82430212 204.28443462 89.8271513 205.46019554 C89.70533395 206.34023561 89.5835166 207.22027569 89.45800781 208.12698364 C86.33580746 210.20845054 85.65362941 210.37647033 82.11010742 210.36990356 C80.79876076 210.37451851 80.79876076 210.37451851 79.46092224 210.37922668 C78.52023392 210.37204117 77.57954559 210.36485565 76.61035156 210.35745239 C75.64271378 210.35699417 74.67507599 210.35653595 73.67811584 210.35606384 C71.63297295 210.35304295 69.58783234 210.34516153 67.54272461 210.33279419 C64.40437717 210.31453524 61.2663247 210.31228454 58.12792969 210.31253052 C56.14290108 210.30761537 54.15787449 210.30178707 52.17285156 210.29495239 C51.23013901 210.29383957 50.28742645 210.29272675 49.31614685 210.2915802 C48.4450679 210.28520035 47.57398895 210.2788205 46.67651367 210.27224731 C45.52426552 210.26652962 45.52426552 210.26652962 44.34873962 210.26069641 C42.45800781 210.12698364 42.45800781 210.12698364 40.45800781 209.12698364 C40.45800781 157.64698364 40.45800781 106.16698364 40.45800781 53.12698364 C25.60800781 53.12698364 10.75800781 53.12698364 -4.54199219 53.12698364 C-5.53199219 52.79698364 -6.52199219 52.46698364 -7.54199219 52.12698364 C-7.54199219 35.29698364 -7.54199219 18.46698364 -7.54199219 1.12698364 C-4.90748276 -0.19027107 -2.95139758 0.00108248 0 0 Z " fill="#FEFEFE" transform="translate(687.5419921875,77.87301635742188)"/>
<path d="M0 0 C0.97448593 -0.00637985 1.94897186 -0.0127597 2.95298767 -0.01933289 C4.54355736 -0.02100212 4.54355736 -0.02100212 6.16625977 -0.02270508 C7.24770767 -0.02603348 8.32915558 -0.02936188 9.44337463 -0.03279114 C11.73584567 -0.0378651 14.02832413 -0.04019932 16.32080078 -0.04003906 C19.83907168 -0.04222478 23.35702883 -0.06037361 26.87524414 -0.0793457 C29.09724827 -0.0822796 31.3192539 -0.08426442 33.54125977 -0.08520508 C34.59961533 -0.09239059 35.65797089 -0.09957611 36.74839783 -0.10697937 C37.72603592 -0.10390274 38.70367401 -0.10082611 39.7109375 -0.09765625 C41.00547096 -0.09979378 41.00547096 -0.09979378 42.32615662 -0.10197449 C44.42016602 0.14526367 44.42016602 0.14526367 46.42016602 2.14526367 C46.61776518 4.78417929 46.68942403 7.31824465 46.6741333 9.95835876 C46.67725328 10.77466139 46.68037326 11.59096401 46.68358779 12.43200308 C46.69160106 15.1827683 46.68523124 17.93331495 46.67895508 20.68408203 C46.68166349 22.6499291 46.68522357 24.61577515 46.6895752 26.58161926 C46.69871995 31.93279642 46.69514621 37.28389677 46.68881702 42.63507533 C46.68376709 48.22575897 46.68844573 53.81643586 46.69158936 59.40711975 C46.69523225 68.7982807 46.69042176 78.18941023 46.6809082 87.58056641 C46.67002621 98.44826239 46.67354609 109.31588332 46.68456101 120.18357748 C46.69362847 129.50164081 46.69492172 138.81968151 46.68968368 148.13774782 C46.68656059 153.70851755 46.68616384 159.27925197 46.69275665 164.85001945 C46.69852151 170.08746171 46.69454899 175.32480695 46.68296814 180.56223869 C46.68031681 182.48798461 46.68109467 184.41373864 46.68549347 186.33948135 C46.6909318 188.9614939 46.68413567 191.58319257 46.6741333 194.20518494 C46.67859474 194.97327183 46.68305619 195.74135873 46.68765283 196.53272098 C46.65975247 200.28497062 46.55632545 201.94102452 44.42016602 205.14526367 C42.32615662 205.51275635 42.32615662 205.51275635 39.7109375 205.50170898 C38.24448036 205.50621063 38.24448036 205.50621063 36.74839783 205.51080322 C35.69004227 205.49845642 34.63168671 205.48610962 33.54125977 205.47338867 C32.45885513 205.4715155 31.3764505 205.46964233 30.26124573 205.4677124 C27.97051926 205.4609818 25.67980448 205.4470475 23.38916016 205.42651367 C19.86878879 205.3953621 16.34886465 205.38554513 12.82836914 205.37963867 C10.60766052 205.3704691 8.38695647 205.36009347 6.16625977 205.34838867 C5.10587997 205.34413879 4.04550018 205.33988892 2.95298767 205.33551025 C1.97850174 205.32590271 1.00401581 205.31629517 0 205.30639648 C-1.29334007 205.29615448 -1.29334007 205.29615448 -2.61280823 205.28570557 C-4.57983398 205.14526367 -4.57983398 205.14526367 -5.57983398 204.14526367 C-5.67985174 201.5299305 -5.7142391 198.94093845 -5.70681763 196.32507324 C-5.70837762 195.49596325 -5.70993761 194.66685327 -5.71154487 193.81261873 C-5.7155584 191.01267542 -5.71236387 188.21278559 -5.70922852 185.4128418 C-5.7105824 183.41434192 -5.71236226 181.41584229 -5.71453857 179.41734314 C-5.71911443 173.97328777 -5.71732272 168.52925126 -5.71415949 163.08519554 C-5.71163667 157.40148236 -5.71397321 151.71777086 -5.71554565 146.03405762 C-5.71736758 136.48730172 -5.71496044 126.94055355 -5.71020508 117.39379883 C-5.70476242 106.339219 -5.70652506 95.2846576 -5.71203148 84.23007822 C-5.71656196 74.75750778 -5.71721348 65.28494291 -5.71459281 55.81237173 C-5.71302968 50.14664501 -5.71283727 44.48092697 -5.7161293 38.81520081 C-5.71900707 33.48998204 -5.71703407 28.16478717 -5.71123505 22.839571 C-5.70990694 20.87912091 -5.71030242 18.91866883 -5.71249771 16.95821953 C-5.71520724 14.29393676 -5.71183053 11.62973183 -5.70681763 8.9654541 C-5.70904835 8.17918656 -5.71127907 7.39291902 -5.71357739 6.58282518 C-5.68944095 0.02515232 -5.68944095 0.02515232 0 0 Z " fill="#6758B9" transform="translate(604.579833984375,82.854736328125)"/>
<path d="M0 0 C0.76127197 -0.0065712 1.52254395 -0.0131424 2.30688477 -0.01991272 C4.84464617 -0.03972815 7.38234757 -0.05133912 9.92016602 -0.0612793 C10.79041979 -0.06535482 11.66067356 -0.06943035 12.55729866 -0.07362938 C17.18158864 -0.09454533 21.80584865 -0.10881149 26.43017578 -0.11816406 C31.16258644 -0.12911732 35.89451225 -0.1633695 40.62675381 -0.20333576 C44.2981693 -0.22978401 47.96947554 -0.23788154 51.64097786 -0.24144554 C53.38172669 -0.24625538 55.12247257 -0.25770463 56.86312675 -0.27648354 C71.76473285 -0.42698559 87.03446725 0.93653255 100.54907227 7.80200195 C101.23864014 8.13973633 101.92820801 8.4774707 102.63867188 8.82543945 C109.69518758 12.42502053 115.76951699 17.0027722 121.73657227 22.17700195 C122.85612305 23.12833008 122.85612305 23.12833008 123.99829102 24.09887695 C141.85217248 40.51462651 150.58964335 68.17007251 151.94116211 91.74584961 C152.03842684 95.32983284 152.06569399 98.90426857 152.04907227 102.48950195 C152.04170044 104.38962036 152.04170044 104.38962036 152.03417969 106.328125 C151.91439132 115.93392379 151.12832888 124.88001253 148.73657227 134.17700195 C148.5702832 134.8337793 148.40399414 135.49055664 148.23266602 136.16723633 C144.25625895 151.43958494 137.46338973 166.42646332 126.73657227 178.17700195 C126.07657227 178.17700195 125.41657227 178.17700195 124.73657227 178.17700195 C124.40657227 179.16700195 124.07657227 180.15700195 123.73657227 181.17700195 C123.07657227 181.17700195 122.41657227 181.17700195 121.73657227 181.17700195 C121.73657227 181.83700195 121.73657227 182.49700195 121.73657227 183.17700195 C102.51679044 200.46072517 79.24579575 205.51919676 54.19750977 205.4074707 C52.42200758 205.40627654 50.64650476 205.40582624 48.8710022 205.40608215 C45.17462129 205.40452758 41.47833864 205.39631054 37.78198242 205.3828125 C33.03492326 205.36569915 28.28797043 205.36200224 23.54088402 205.36275768 C19.88647439 205.36248665 16.23208818 205.35701825 12.57768631 205.34975624 C10.8257121 205.34656857 9.07373523 205.34460194 7.32175827 205.34386253 C4.88755443 205.34170705 2.45346629 205.33298386 0.01928711 205.32226562 C-1.07148636 205.3229454 -1.07148636 205.3229454 -2.18429565 205.32363892 C-7.14894049 205.2914892 -7.14894049 205.2914892 -8.26342773 204.17700195 C-8.36344549 201.56166878 -8.39783285 198.97267673 -8.39041138 196.35681152 C-8.39197137 195.52770154 -8.39353136 194.69859155 -8.39513862 193.84435701 C-8.39915215 191.0444137 -8.39595762 188.24452387 -8.39282227 185.44458008 C-8.39417615 183.4460802 -8.39595601 181.44758057 -8.39813232 179.44908142 C-8.40270818 174.00502605 -8.40091647 168.56098954 -8.39775324 163.11693382 C-8.39523042 157.43322064 -8.39756696 151.74950914 -8.3991394 146.0657959 C-8.40096133 136.51904 -8.39855419 126.97229183 -8.39379883 117.42553711 C-8.38835617 106.37095728 -8.39011881 95.31639589 -8.39562523 84.2618165 C-8.40015571 74.78924606 -8.40080723 65.31668119 -8.39818656 55.84411001 C-8.39662343 50.17838329 -8.39643102 44.51266526 -8.39972305 38.84693909 C-8.40260082 33.52172032 -8.40062782 28.19652545 -8.3948288 22.87130928 C-8.39350069 20.91085919 -8.39389617 18.95040712 -8.39609146 16.98995781 C-8.39880099 14.32567504 -8.39542428 11.66147012 -8.39041138 8.99719238 C-8.3926421 8.21092484 -8.39487282 7.4246573 -8.39717114 6.61456347 C-8.37032807 -0.67848016 -6.6413638 0.02461352 0 0 Z M-7.26342773 2.17700195 C-7.26342773 68.50700195 -7.26342773 134.83700195 -7.26342773 203.17700195 C44.63305922 207.63724157 44.63305922 207.63724157 100.04907227 195.42700195 C100.70657471 195.08338623 101.36407715 194.73977051 102.04150391 194.38574219 C115.75552884 187.03398007 126.31341377 177.21865556 134.73657227 164.17700195 C135.24961914 163.44352539 135.76266602 162.71004883 136.29125977 161.9543457 C139.72090198 156.77434205 141.92636662 151.39845823 143.92407227 145.55200195 C144.16198486 144.86686523 144.39989746 144.18172852 144.64501953 143.47583008 C148.86877217 130.44507237 150.27218468 117.48133012 150.11157227 103.86450195 C150.10658722 103.1474408 150.10160217 102.43037964 150.09646606 101.69158936 C149.86015065 72.58803342 142.96774317 46.25035225 122.42407227 24.55200195 C87.30744121 -9.09499036 38.15431789 2.17700195 -7.26342773 2.17700195 Z " fill="#CDC8E8" transform="translate(422.263427734375,82.822998046875)"/>
<path d="M0 0 C1.4718267 2.79083428 2.57183148 5.52627039 3.515625 8.53515625 C3.9334021 9.85785522 3.9334021 9.85785522 4.35961914 11.20727539 C4.65344482 12.14949951 4.94727051 13.09172363 5.25 14.0625 C5.5586499 15.04404053 5.8672998 16.02558105 6.18530273 17.03686523 C6.82046642 19.05677377 7.45449667 21.07703906 8.08740234 23.09765625 C8.91004148 25.713904 9.74286288 28.32651657 10.58203125 30.9375 C13.15555128 38.96354986 15.59677421 47.00996584 17.875 55.125 C20.10216084 63.05740454 22.52851089 70.91036035 25.0625 78.75 C27.69988411 86.90952248 30.2642948 95.0750027 32.6328125 103.31640625 C33.75068735 107.19211522 34.93101267 111.04701567 36.1171875 114.90234375 C36.6750293 116.73369873 36.6750293 116.73369873 37.24414062 118.60205078 C37.98766209 121.04161019 38.73875181 123.47887808 39.49804688 125.91357422 C39.83642578 127.03135254 40.17480469 128.14913086 40.5234375 129.30078125 C40.83200684 130.30278564 41.14057617 131.30479004 41.45849609 132.3371582 C42.01708636 135.08402205 41.76483712 136.37304486 41 139 C34.05827612 139.02529373 27.11656406 139.04284304 20.17480469 139.05493164 C17.81184444 139.05996959 15.44888732 139.06680008 13.0859375 139.07543945 C9.69530465 139.08752854 6.30471291 139.09323359 2.9140625 139.09765625 C1.85256989 139.10281754 0.79107727 139.10797882 -0.30258179 139.11329651 C-1.28344757 139.11337204 -2.26431335 139.11344757 -3.27490234 139.11352539 C-4.14094086 139.115746 -5.00697937 139.11796661 -5.89926147 139.12025452 C-8 139 -8 139 -10 138 C-10.82976636 135.68123978 -11.54084324 133.41106869 -12.19921875 131.04296875 C-12.39852493 130.34359695 -12.59783112 129.64422516 -12.80317688 128.92366028 C-13.22311872 127.44103588 -13.63895538 125.9572436 -14.05102539 124.47241211 C-14.68302077 122.20358022 -15.33373916 119.94071666 -15.98632812 117.67773438 C-16.39177429 116.23730217 -16.79610775 114.79655621 -17.19921875 113.35546875 C-17.39496994 112.67929001 -17.59072113 112.00311127 -17.79240417 111.30644226 C-18.72348653 107.89331883 -19.33512252 105.35722917 -18 102 C-16.23005591 106.50531224 -14.70421774 110.86616218 -13.60546875 115.58984375 C-12.49439823 120.01262126 -11.12324538 124.36575342 -9.8046875 128.73046875 C-9 132 -9 132 -9 137 C7.17 137 23.34 137 40 137 C38.55625 132.111875 37.1125 127.22375 35.625 122.1875 C35.17334473 120.64860107 34.72168945 119.10970215 34.25634766 117.52416992 C33.89589355 116.31349854 33.53543945 115.10282715 33.1640625 113.85546875 C32.79748535 112.61434326 32.4309082 111.37321777 32.05322266 110.09448242 C31.10858082 106.88442395 31.10858082 106.88442395 29 104 C28.65458149 101.66842508 28.32205743 99.33491639 28 97 C27.70609375 96.2678125 27.4121875 95.535625 27.109375 94.78125 C25.68996459 91.22272814 24.73720696 87.57002038 23.75 83.875 C21.79744499 76.70297482 19.65070613 69.61684502 17.37426758 62.54174805 C15.2698339 55.95845933 13.34343639 49.33063638 11.4375 42.6875 C9.21136404 34.94086411 6.80647451 27.35265278 3.99609375 19.796875 C2.72890447 16.23880628 1.84858904 12.67721917 1 9 C0.67 8.34 0.34 7.68 0 7 C-0.04022391 4.6670134 -0.04320247 2.33293334 0 0 Z " fill="#E4E1F2" transform="translate(353,149)"/>
<path d="M0 0 C2.33585876 2.10393816 3.52023768 3.79752919 4.53515625 6.765625 C4.91317383 7.85423828 4.91317383 7.85423828 5.29882812 8.96484375 C5.55083984 9.71894531 5.80285156 10.47304687 6.0625 11.25 C6.31837891 11.98863281 6.57425781 12.72726563 6.83789062 13.48828125 C7.58022318 15.65230469 8.29367215 17.82399653 9 20 C9.34933594 21.04671875 9.69867187 22.0934375 10.05859375 23.171875 C12.66942934 33.78855086 13.36303261 44.41283562 13.3125 55.3125 C13.30512817 57.21261841 13.30512817 57.21261841 13.29760742 59.15112305 C13.17781905 68.75692184 12.39175662 77.70301057 10 87 C9.83371094 87.65677734 9.66742187 88.31355469 9.49609375 88.99023438 C5.51968669 104.26258299 -1.27318253 119.24946137 -12 131 C-12.66 131 -13.32 131 -14 131 C-14.33 131.99 -14.66 132.98 -15 134 C-15.66 134 -16.32 134 -17 134 C-17 134.66 -17 135.32 -17 136 C-30.41760275 148.06601273 -47.90956054 156.28777797 -66 157 C-63.15705723 155.10470482 -61.14322266 154.49969197 -57.86010742 153.80957031 C-35.68062917 149.10234827 -17.31677103 135.92648031 -5 117 C-4.48566406 116.26523438 -3.97132813 115.53046875 -3.44140625 114.7734375 C-0.01498215 109.59375224 2.19040531 104.21966824 4.1875 98.375 C4.4254126 97.68986328 4.6633252 97.00472656 4.90844727 96.29882812 C9.1321999 83.26807042 10.53561242 70.30432817 10.375 56.6875 C10.37001495 55.97043884 10.36502991 55.25337769 10.3598938 54.5145874 C10.21725629 36.94798544 7.97153506 22.03483419 1.42578125 5.68359375 C0 2 0 2 0 0 Z " fill="#D9D5ED" transform="translate(561,130)"/>
<path d="M0 0 C15.51 0 31.02 0 47 0 C47.495 1.98 47.495 1.98 48 4 C47.505 3.01 47.505 3.01 47 2 C31.82 2 16.64 2 1 2 C0.34 5.63 -0.32 9.26 -1 13 C-2.04683369 17.36790749 -3.2749359 21.678958 -4.5 26 C-4.80808594 27.11761719 -5.11617188 28.23523438 -5.43359375 29.38671875 C-5.73394531 30.45535156 -6.03429687 31.52398437 -6.34375 32.625 C-6.74883789 34.06746094 -6.74883789 34.06746094 -7.16210938 35.5390625 C-8 38 -8 38 -10 41 C-12.0940094 41.36749268 -12.0940094 41.36749268 -14.70922852 41.35644531 C-16.17568565 41.36094696 -16.17568565 41.36094696 -17.67176819 41.36553955 C-18.73012375 41.35319275 -19.78847931 41.34084595 -20.87890625 41.328125 C-21.96131088 41.32625183 -23.04371552 41.32437866 -24.15892029 41.32244873 C-26.44964676 41.31571813 -28.74036154 41.30178382 -31.03100586 41.28125 C-34.55137723 41.25009842 -38.07130137 41.24028146 -41.59179688 41.234375 C-43.8125055 41.22520543 -46.03320954 41.2148298 -48.25390625 41.203125 C-49.31428604 41.19887512 -50.37466583 41.19462524 -51.46717834 41.19024658 C-52.92890724 41.17583527 -52.92890724 41.17583527 -54.42016602 41.16113281 C-55.28239273 41.15430481 -56.14461945 41.14747681 -57.03297424 41.14044189 C-59 41 -59 41 -60 40 C-59.94921875 38.0390625 -59.94921875 38.0390625 -59.6875 35.625 C-59.60886719 34.83351563 -59.53023437 34.04203125 -59.44921875 33.2265625 C-59 31 -59 31 -57 28 C-57.50452219 31.74787912 -58.08159233 35.32636934 -59 39 C-42.83 39 -26.66 39 -10 39 C-8.515 31.575 -8.515 31.575 -7 24 C-6.36053693 21.18119038 -5.70034625 18.36680309 -5 15.5625 C-4.690625 14.30566406 -4.38125 13.04882812 -4.0625 11.75390625 C-2.93354506 7.76520882 -1.45554311 3.88144828 0 0 Z " fill="#DBD7EE" transform="translate(286,247)"/>
<path d="M0 0 C0.77118164 0.00142502 1.54236328 0.00285004 2.33691406 0.00431824 C3.2112207 0.00124161 4.08552734 -0.00183502 4.98632812 -0.00500488 C5.93217773 0.00218063 6.87802734 0.00936615 7.85253906 0.01676941 C8.8215918 0.01722763 9.79064453 0.01768585 10.7890625 0.01815796 C12.84018171 0.0211822 14.89129858 0.02907362 16.94238281 0.04142761 C20.08960061 0.05966319 23.236524 0.06193747 26.38378906 0.06169128 C28.37337495 0.06660718 30.36295884 0.07243581 32.35253906 0.07926941 C33.77131348 0.08093864 33.77131348 0.08093864 35.21875 0.0826416 C36.53020996 0.09221138 36.53020996 0.09221138 37.86816406 0.10197449 C38.6393457 0.10578629 39.41052734 0.10959808 40.20507812 0.11352539 C42.10253906 0.24723816 42.10253906 0.24723816 44.10253906 1.24723816 C45.10545447 3.99435428 45.9944445 6.71110872 46.83300781 9.50895691 C47.09365524 10.35713486 47.35430267 11.20531281 47.62284851 12.07919312 C48.45676781 14.79968957 49.27981331 17.52333824 50.10253906 20.24723816 C50.63397959 21.98652377 51.16603382 23.72562201 51.69873047 25.46452332 C53.01977247 29.78652127 54.32680947 34.11258814 55.62719727 38.44084167 C56.42854002 41.10461723 57.23527231 43.76672743 58.04199219 46.42887878 C58.5585969 48.14557679 59.07488524 49.86237004 59.59082031 51.57926941 C59.82932205 52.36364883 60.06782379 53.14802826 60.31355286 53.95617676 C61.53295472 58.03756217 62.51211919 62.01596576 63.10253906 66.24723816 C59.60624548 62.46216517 58.64809652 58.02172448 57.29003906 53.18473816 C56.76667758 51.37704694 56.24190256 49.56976445 55.71582031 47.76286316 C55.44979004 46.84440613 55.18375977 45.9259491 54.90966797 44.97966003 C53.66787277 40.77573631 52.32090708 36.60706101 50.97753906 32.43473816 C47.80462251 22.49265896 44.82064446 12.55587057 43.10253906 2.24723816 C28.25253906 2.57723816 13.40253906 2.90723816 -1.89746094 3.24723816 C-3.21746094 8.19723816 -4.53746094 13.14723816 -5.89746094 18.24723816 C-7.5748316 24.15158288 -9.35162186 29.67063827 -11.89746094 35.24723816 C-13.42198993 31.30618793 -12.32666327 28.51472554 -11.09667969 24.58317566 C-10.90024368 23.94989349 -10.70380768 23.31661133 -10.50141907 22.66413879 C-10.08501316 21.32962768 -9.66360962 19.99666701 -9.23754883 18.66520691 C-8.58615508 16.62597649 -7.95259157 14.58182889 -7.32128906 12.53630066 C-3.53086794 0.46007023 -3.53086794 0.46007023 0 0 Z " fill="#D1CDEA" transform="translate(289.8974609375,82.75276184082031)"/>
<path d="M0 0 C3.32176381 3.32176381 3.63863622 7.89267616 4.6875 12.375 C4.92533203 13.3340625 5.16316406 14.293125 5.40820312 15.28125 C5.62798828 16.20679688 5.84777344 17.13234375 6.07421875 18.0859375 C6.37718872 19.3551001 6.37718872 19.3551001 6.6862793 20.64990234 C7 23 7 23 6 27 C4.02 19.41 2.04 11.82 0 4 C-0.50789063 6.05476562 -1.01578125 8.10953125 -1.5390625 10.2265625 C-5.49985365 26.20854201 -9.5926816 42.13365377 -14 58 C-5.09 58 3.82 58 13 58 C12.484375 55.7725 11.96875 53.545 11.4375 51.25 C9.65178571 43.53571429 9.65178571 43.53571429 11 40 C13.03572906 43.05359359 13.50690979 44.76583949 14.125 48.3125 C14.29257812 49.23675781 14.46015625 50.16101563 14.6328125 51.11328125 C15 54 15 54 15 60 C4.77 60 -5.46 60 -16 60 C-16 54.70684716 -15.28476091 50.71298775 -13.8125 45.75 C-13.35403034 44.15238287 -12.89570118 42.55472541 -12.4375 40.95703125 C-12.2003125 40.14057129 -11.963125 39.32411133 -11.71875 38.48291016 C-10.55845792 34.4747001 -9.43443029 30.45658287 -8.3125 26.4375 C-8.11052002 25.7249707 -7.90854004 25.01244141 -7.70043945 24.27832031 C-6.2829276 19.22125101 -5.10347037 14.13389737 -4 9 C-3.41615246 6.28987591 -2.76292654 3.67024288 -2 1 C-1.34 0.67 -0.68 0.34 0 0 Z " fill="#DCD8EF" transform="translate(310,150)"/>
<path d="M0 0 C2.58998413 2.58998413 2.91689268 4.71846392 3.875 8.25 C4.21789062 9.50167969 4.56078125 10.75335938 4.9140625 12.04296875 C5.09098633 12.69442871 5.26791016 13.34588867 5.45019531 14.01708984 C5.99267926 15.97359721 6.56453824 17.91876784 7.1484375 19.86328125 C7.51195312 21.08402344 7.87546875 22.30476563 8.25 23.5625 C8.58515625 24.67753906 8.9203125 25.79257812 9.265625 26.94140625 C10 30 10 30 10 35 C26.17 35 42.34 35 59 35 C59 35.33 59 35.66 59 36 C42.5 36 26 36 9 36 C7.515 30.8025 6.03 25.605 4.5 20.25 C4.03013672 18.61579102 3.56027344 16.98158203 3.07617188 15.29785156 C2.70661562 13.99556058 2.33744873 12.69315902 1.96875 11.390625 C1.77442383 10.72015137 1.58009766 10.04967773 1.37988281 9.35888672 C0.45105389 6.05884112 0 3.46754829 0 0 Z " fill="#BCB5E0" transform="translate(334,251)"/>
<path d="M0 0 C2.33585876 2.10393816 3.52023768 3.79752919 4.53515625 6.765625 C4.78716797 7.49136719 5.03917969 8.21710938 5.29882812 8.96484375 C5.55083984 9.71894531 5.80285156 10.47304687 6.0625 11.25 C6.31837891 11.98863281 6.57425781 12.72726563 6.83789062 13.48828125 C7.58022318 15.65230469 8.29367215 17.82399653 9 20 C9.34933594 21.04671875 9.69867187 22.0934375 10.05859375 23.171875 C12.77001981 34.19759095 13.2747353 45.06422606 13.125 56.375 C13.11492858 57.70832645 13.10581023 59.04166045 13.09765625 60.375 C13.074406 63.58353441 13.04173343 66.79166204 13 70 C12.67 70 12.34 70 12 70 C11.98598145 68.99924438 11.98598145 68.99924438 11.97167969 67.97827148 C11.59064363 46.11912964 9.62938604 25.92885132 1.390625 5.54296875 C0 2 0 2 0 0 Z " fill="#E3E0F2" transform="translate(561,130)"/>
<path d="M0 0 C0.33 0 0.66 0 1 0 C1.0500364 4.3558609 1.08601534 8.7115624 1.10986328 13.06762695 C1.11982183 14.54454468 1.13339361 16.02144322 1.15087891 17.49829102 C1.28826129 29.41419257 0.16715067 40.19647259 -3.5625 51.5625 C-3.89411133 52.60760742 -3.89411133 52.60760742 -4.23242188 53.67382812 C-5.83033608 58.66067217 -5.83033608 58.66067217 -7 61 C-7.66 61 -8.32 61 -9 61 C-8.54548816 59.26982492 -8.08621143 57.54090123 -7.625 55.8125 C-7.36976563 54.84957031 -7.11453125 53.88664062 -6.8515625 52.89453125 C-6 50 -6 50 -4.99609375 47.54296875 C0.79488293 32.75894594 -0.28618869 15.59649329 0 0 Z " fill="#D0CBE9" transform="translate(572,174)"/>
<path d="M0 0 C3.01679332 2.47129097 3.57297063 4.51502366 4.1875 8.3125 C4.34605469 9.23675781 4.50460937 10.16101563 4.66796875 11.11328125 C5 14 5 14 5 20 C-5.23 20 -15.46 20 -26 20 C-26 18.02 -26 16.04 -26 14 C-25.67 14 -25.34 14 -25 14 C-25 15.65 -25 17.3 -25 19 C-15.43 19 -5.86 19 4 19 C2.68920007 14.2420951 2.68920007 14.2420951 1.3671875 9.48730469 C0.46491727 6.15928812 0 3.47672588 0 0 Z " fill="#D2CEEA" transform="translate(320,190)"/>
<path d="M0 0 C5.09451626 7.64177439 6.58250975 17.94046156 7 27 C4.22809708 24.22809708 4.51965742 21.83247344 4 18 C3.35561283 16.32459336 2.68753301 14.65816784 2 13 C0.68729893 8.63325972 -0.28726664 4.59626618 0 0 Z " fill="#CBC7E7" transform="translate(377,228)"/>
<path d="M0 0 C1.16161779 2.86578759 0.9946154 4.01630163 0.00390625 7.015625 C-0.70958984 8.61664063 -0.70958984 8.61664063 -1.4375 10.25 C-1.91058594 11.32765625 -2.38367188 12.4053125 -2.87109375 13.515625 C-3.24363281 14.33546875 -3.61617188 15.1553125 -4 16 C-5.25127906 12.45332822 -4.72285053 10.27746562 -3.5625 6.75 C-3.27503906 5.85796875 -2.98757813 4.9659375 -2.69140625 4.046875 C-2.46324219 3.37140625 -2.23507812 2.6959375 -2 2 C-1.34 2 -0.68 2 0 2 C0 1.34 0 0.68 0 0 Z " fill="#BDB6E0" transform="translate(282,102)"/>
<path d="M0 0 C2.28363378 2.28363378 2.7152849 3.74795468 3.625 6.8125 C4.01558594 8.09060547 4.01558594 8.09060547 4.4140625 9.39453125 C5.0044509 12.01979166 5.10588413 14.31920637 5 17 C2.46394931 14.46394931 2.20749627 12.53123444 1.375 9.0625 C0.98441406 7.47115234 0.98441406 7.47115234 0.5859375 5.84765625 C0 3 0 3 0 0 Z " fill="#D3CEEA" transform="translate(364,187)"/>
<path d="M0 0 C2.7972908 2.06756277 3.02692273 3.14440371 3.6875 6.6875 C3.790625 7.780625 3.89375 8.87375 4 10 C1.2027092 7.93243723 0.97307727 6.85559629 0.3125 3.3125 C0.209375 2.219375 0.10625 1.12625 0 0 Z " fill="#BEB8E1" transform="translate(320,190)"/>
</svg>
